{"title":"Hun Pateela Kharrkega Aaa Ha 2014 Punjabi Comedy Movie DVDRIP 48","uid":10077274,"size":259372607,"categoryP":"video","categoryS":"movies","magnet":"?xt=urn:btih:48677e557d28d265ba391c9013a77c79872f59d2&amp;dn=Hun+Pateela+Kharrkega+Aaa+Ha+2014+Punjabi+Comedy+Movie+DVDRIP+48&amp;tr=udp%3A%2F%2Ftracker.openbittorrent.com%3A80&amp;tr=udp%3A%2F%2Fopen.demonii.com%3A1337&amp;tr=udp%3A%2F%2Ftracker.coppersurfer.tk%3A6969&amp;tr=udp%3A%2F%2Fexodus.desync.com%3A6969","seeders":0,"leechers":1,"uploader":"jatt13","files":1,"time":1398941250,"description":"Video\nID                             : 1\nFormat                         : AVC\nFormat/Info                    : Advanced Video Codec\nFormat profile                 : &lt;a class=&quot;__cf_email__&quot; href=&quot;/cdn-cgi/l/email-protection&quot; data-cfemail=&quot;7f321e16113f334b514f&quot;&gt;[email&amp;#160;protected]&lt;/a&gt;&lt;script cf-hash='f9e31' type=&quot;text/javascript&quot;&gt;\n/* &lt;![CDATA[ */!function(){try{var t=&quot;currentScript&quot;in document?document.currentScript:function(){for(var t=document.getElementsByTagName(&quot;script&quot;),e=t.length;e--;)if(t[e].getAttribute(&quot;cf-hash&quot;))return t[e]}();if(t&amp;&amp;t.previousSibling){var e,r,n,i,c=t.previousSibling,a=c.getAttribute(&quot;data-cfemail&quot;);if(a){for(e=&quot;&quot;,r=parseInt(a.substr(0,2),16),n=2;a.length-n;n+=2)i=parseInt(a.substr(n,2),16)^r,e+=String.fromCharCode(i);e=document.createTextNode(e),c.parentNode.replaceChild(e,c)}}}catch(u){}}();/* ]]&gt; */&lt;/script&gt;\nFormat settings, CABAC         : Yes\nFormat settings, ReFrames      : 4 frames\nCodec ID                       : V_MPEG4/ISO/AVC\nDuration                       : 1h 10mn\nBit rate                       : 419 Kbps\nNominal bit rate               : 500 Kbps\nWidth                          : 720 pixels\nHeight                         : 400 pixels\nDisplay aspect ratio           : 16:9\nFrame rate mode                : Constant\nFrame rate                     : 25.000 fps\nColor space                    : YUV\nChroma subsampling             : 4:2:0\nBit depth                      : 8 bits\nScan type                      : Progressive\nBits/(Pixel*Frame)             : 0.058\nStream size                    : 210 MiB (85%)\nTitle                          : GOPI SAHI  à¨—à©‹à¨ªà©€ à¨¸à¨¾à¨¹à©€\nWriting library                : x264 core 130 r2273 b3065e60\nLanguage                       : English\nDefault                        : Yes\nForced                         : No\nColor primaries                : BT.601 PAL\nTransfer characteristics       : BT.709\nMatrix coefficients            : BT.601\n\nAudio\nID                             : 2\nFormat                         : MPEG Audio\nFormat version                 : Version 1\nFormat profile                 : Layer 3\nMode                           : Joint stereo\nMode extension                 : MS Stereo\nCodec ID                       : A_MPEG/L3\nCodec ID/Hint                  : MP3\nDuration                       : 1h 10mn\nBit rate mode                  : Constant\nBit rate                       : 64.0 Kbps\nChannel count                  : 2 channels\nSampling rate                  : 44.1 KHz\nCompression mode               : Lossy\nStream size                    : 32.1 MiB (13%)\nTitle                          : GOPI SAHI  à¨—à©‹à¨ªà©€ à¨¸à¨¾à¨¹à©€\nWriting library                : LAMEUUULAME3.98.2\nLanguage                       : Panjabi\nDefault                        : Yes\nForced                         : No\n[IMG]http://i.imgur.com/66NPo4U.jpg[/IMG]\n[IMG]http://i.imgur.com/TnC4KOI.jpg[/IMG]\n[IMG]http://i.imgur.com/ck4qwZ6.jpg[/IMG]","torrent":{"xt":"urn:btih:48677e557d28d265ba391c9013a77c79872f59d2","amp;dn":"Hun+Pateela+Kharrkega+Aaa+Ha+2014+Punjabi+Comedy+Movie+DVDRIP+48","amp;tr":["udp%3A%2F%2Ftracker.openbittorrent.com%3A80","udp%3A%2F%2Fopen.demonii.com%3A1337","udp%3A%2F%2Ftracker.coppersurfer.tk%3A6969","udp%3A%2F%2Fexodus.desync.com%3A6969"],"infoHash":"48677e557d28d265ba391c9013a77c79872f59d2","infoHashBuffer":{"type":"Buffer","data":[72,103,126,85,125,40,210,101,186,57,28,144,19,167,124,121,135,47,89,210]},"announce":[],"urlList":[]}}